<svg xmlns="http://www.w3.org/2000/svg" xmlns:xlink="http://www.w3.org/1999/xlink" width="500" zoomAndPan="magnify" viewBox="0 0 375 374.999991" height="500" preserveAspectRatio="xMidYMid meet" version="1.0"><defs><clipPath id="87f5d00f59"><path d="M 112.5 131 L 142 131 L 142 140 L 112.5 140 Z M 112.5 131 " clip-rule="nonzero"/></clipPath><clipPath id="b55714794a"><path d="M 157 216 L 185 216 L 185 244.125 L 157 244.125 Z M 157 216 " clip-rule="nonzero"/></clipPath><clipPath id="bbb64bc41e"><path d="M 229 216 L 258 216 L 258 244.125 L 229 244.125 Z M 229 216 " clip-rule="nonzero"/></clipPath></defs><g clip-path="url(#87f5d00f59)"><path fill="#eeeeee" d="M 141.527344 135.632812 C 141.527344 137.949219 140.078125 139.820312 138.296875 139.820312 L 115.875 139.820312 C 114.09375 139.820312 112.648438 137.949219 112.648438 135.632812 C 112.648438 133.320312 114.09375 131.449219 115.875 131.449219 L 138.296875 131.449219 C 140.078125 131.449219 141.527344 133.320312 141.527344 135.632812 " fill-opacity="1" fill-rule="nonzero"/></g><path fill="#eeeeee" d="M 183.394531 147.53125 C 183.394531 148.703125 182.664062 149.652344 181.761719 149.652344 L 146.316406 149.652344 C 145.414062 149.652344 144.683594 148.703125 144.683594 147.53125 C 144.683594 146.363281 145.414062 145.410156 146.316406 145.410156 L 181.761719 145.410156 C 182.664062 145.410156 183.394531 146.363281 183.394531 147.53125 " fill-opacity="1" fill-rule="nonzero"/><path fill="#eeeeee" d="M 243.558594 209.796875 C 243.558594 212.109375 242.113281 213.984375 240.328125 213.984375 L 166.039062 213.984375 C 164.253906 213.984375 162.804688 212.109375 162.804688 209.796875 C 162.804688 207.480469 164.253906 205.605469 166.039062 205.605469 L 240.328125 205.605469 C 242.113281 205.605469 243.558594 207.480469 243.558594 209.796875 " fill-opacity="1" fill-rule="nonzero"/><path fill="#eeeeee" d="M 261.917969 159.910156 C 261.917969 162.222656 260.476562 164.097656 258.691406 164.097656 L 149.558594 164.097656 C 147.777344 164.097656 146.328125 162.222656 146.328125 159.910156 C 146.328125 157.597656 147.777344 155.722656 149.558594 155.722656 L 258.691406 155.722656 C 260.476562 155.722656 261.917969 157.597656 261.917969 159.910156 " fill-opacity="1" fill-rule="nonzero"/><path fill="#eeeeee" d="M 246.179688 230.492188 C 246.179688 232.171875 245.125 233.539062 243.828125 233.539062 L 164.421875 233.539062 C 163.125 233.539062 162.070312 232.171875 162.070312 230.492188 C 162.070312 228.808594 163.125 227.441406 164.421875 227.441406 L 243.828125 227.441406 C 245.125 227.441406 246.179688 228.808594 246.179688 230.492188 " fill-opacity="1" fill-rule="nonzero"/><path fill="#eeeeee" d="M 174.203125 234.941406 C 172.585938 235.914062 170.667969 235.003906 169.914062 232.910156 L 135.699219 137.402344 C 134.949219 135.304688 135.648438 132.816406 137.269531 131.835938 C 138.886719 130.859375 140.804688 131.773438 141.558594 133.867188 L 175.769531 229.378906 C 176.523438 231.476562 175.820312 233.96875 174.203125 234.941406 " fill-opacity="1" fill-rule="nonzero"/><g clip-path="url(#b55714794a)"><path fill="#eeeeee" d="M 184.890625 230.488281 C 184.890625 238.027344 178.78125 244.132812 171.25 244.132812 C 163.714844 244.132812 157.609375 238.027344 157.609375 230.488281 C 157.609375 222.957031 163.714844 216.847656 171.25 216.847656 C 178.78125 216.847656 184.890625 222.957031 184.890625 230.488281 " fill-opacity="1" fill-rule="nonzero"/></g><g clip-path="url(#bbb64bc41e)"><path fill="#eeeeee" d="M 257.199219 230.488281 C 257.199219 238.027344 251.089844 244.132812 243.558594 244.132812 C 236.023438 244.132812 229.917969 238.027344 229.917969 230.488281 C 229.917969 222.957031 236.023438 216.847656 243.558594 216.847656 C 251.089844 216.847656 257.199219 222.957031 257.199219 230.488281 " fill-opacity="1" fill-rule="nonzero"/></g><path fill="#eeeeee" d="M 239.308594 213.589844 C 240.925781 214.566406 242.84375 213.65625 243.597656 211.558594 L 261.617188 161.675781 C 262.371094 159.582031 261.667969 157.089844 260.050781 156.113281 C 258.433594 155.136719 256.511719 156.046875 255.757812 158.144531 L 237.742188 208.03125 C 236.988281 210.125 237.691406 212.617188 239.308594 213.589844 " fill-opacity="1" fill-rule="nonzero"/><path fill="#eeeeee" d="M 173.167969 210.359375 L 161.03125 159.667969 L 162.375 159.347656 L 174.511719 210.035156 L 173.167969 210.359375 " fill-opacity="1" fill-rule="nonzero"/><path fill="#eeeeee" d="M 183.382812 210.359375 L 171.246094 159.667969 L 172.59375 159.347656 L 184.730469 210.035156 L 183.382812 210.359375 " fill-opacity="1" fill-rule="nonzero"/><path fill="#eeeeee" d="M 191.558594 209.398438 L 182.578125 159.628906 L 183.941406 159.386719 L 192.917969 209.152344 L 191.558594 209.398438 " fill-opacity="1" fill-rule="nonzero"/><path fill="#eeeeee" d="M 201.464844 208.890625 L 193.511719 159.617188 L 194.878906 159.398438 L 202.828125 208.667969 L 201.464844 208.890625 " fill-opacity="1" fill-rule="nonzero"/><path fill="#eeeeee" d="M 211.117188 208.378906 L 205.074219 159.59375 L 206.445312 159.421875 L 212.488281 208.210938 L 211.117188 208.378906 " fill-opacity="1" fill-rule="nonzero"/><path fill="#eeeeee" d="M 219.847656 207.890625 L 217.773438 159.570312 L 219.15625 159.507812 L 221.226562 207.828125 L 219.847656 207.890625 " fill-opacity="1" fill-rule="nonzero"/><path fill="#eeeeee" d="M 230.253906 207 L 228.871094 206.964844 L 230.152344 159.488281 L 231.53125 159.527344 L 230.253906 207 " fill-opacity="1" fill-rule="nonzero"/><path fill="#eeeeee" d="M 252.519531 171.917969 L 153.847656 171.917969 L 153.847656 170.535156 L 252.519531 170.535156 L 252.519531 171.917969 " fill-opacity="1" fill-rule="nonzero"/><path fill="#eeeeee" d="M 248.121094 183.625 L 157.730469 183.625 L 157.730469 182.238281 L 248.121094 182.238281 L 248.121094 183.625 " fill-opacity="1" fill-rule="nonzero"/><path fill="#eeeeee" d="M 246.738281 195.328125 L 162.175781 195.328125 L 162.175781 193.945312 L 246.738281 193.945312 L 246.738281 195.328125 " fill-opacity="1" fill-rule="nonzero"/><path fill="#eeeeee" d="M 238.730469 207.046875 L 237.351562 206.917969 L 241.902344 159.441406 L 243.277344 159.574219 L 238.730469 207.046875 " fill-opacity="1" fill-rule="nonzero"/></svg>