<svg xmlns="http://www.w3.org/2000/svg" xmlns:xlink="http://www.w3.org/1999/xlink" width="500" zoomAndPan="magnify" viewBox="0 0 375 374.999991" height="500" preserveAspectRatio="xMidYMid meet" version="1.0"><defs><clipPath id="8c485bfffa"><path d="M 151 112.5 L 224 112.5 L 224 191 L 151 191 Z M 151 112.5 " clip-rule="nonzero"/></clipPath><clipPath id="8e1b03c0a6"><path d="M 119.15625 190 L 255.65625 190 L 255.65625 262.5 L 119.15625 262.5 Z M 119.15625 190 " clip-rule="nonzero"/></clipPath></defs><g clip-path="url(#8c485bfffa)"><path fill="#eeeeee" d="M 187.5 190.308594 C 207.578125 190.308594 223.914062 168.996094 223.914062 148.917969 C 223.914062 128.839844 207.578125 112.5 187.5 112.5 C 167.421875 112.5 151.085938 128.839844 151.085938 148.917969 C 151.089844 168.992188 167.421875 190.308594 187.5 190.308594 Z M 187.5 190.308594 " fill-opacity="1" fill-rule="nonzero"/></g><g clip-path="url(#8e1b03c0a6)"><path fill="#eeeeee" d="M 214.835938 190.679688 C 207.773438 196.0625 198.960938 199.261719 189.417969 199.261719 L 185.582031 199.261719 C 176.035156 199.261719 167.222656 196.058594 160.160156 190.679688 C 137.097656 194.410156 119.488281 214.398438 119.488281 238.511719 C 119.488281 251.757812 149.9375 262.5 187.5 262.5 C 225.0625 262.5 255.511719 251.757812 255.511719 238.511719 C 255.511719 214.398438 237.898438 194.410156 214.835938 190.679688 Z M 214.835938 190.679688 " fill-opacity="1" fill-rule="nonzero"/></g></svg>